<svg xmlns="http://www.w3.org/2000/svg" xmlns:xlink="http://www.w3.org/1999/xlink" width="1080" zoomAndPan="magnify" viewBox="0 0 810 809.999993" height="1080" preserveAspectRatio="xMidYMid meet" version="1.0"><defs><g/><clipPath id="37b2bd3a51"><path d="M 29.339844 29.046875 L 425.859375 29.046875 L 425.859375 425.566406 L 29.339844 425.566406 Z M 29.339844 29.046875 " clip-rule="nonzero"/></clipPath><clipPath id="d70c367d4e"><path d="M 93.96875 86.050781 L 361.109375 86.050781 L 361.109375 353.1875 L 93.96875 353.1875 Z M 93.96875 86.050781 " clip-rule="nonzero"/></clipPath><clipPath id="17afe0f49b"><path d="M 227.539062 86.050781 C 153.769531 86.050781 93.96875 145.851562 93.96875 219.621094 C 93.96875 293.386719 153.769531 353.1875 227.539062 353.1875 C 301.304688 353.1875 361.109375 293.386719 361.109375 219.621094 C 361.109375 145.851562 301.304688 86.050781 227.539062 86.050781 Z M 227.539062 86.050781 " clip-rule="nonzero"/></clipPath><clipPath id="b9cf8dd075"><path d="M 0.96875 0.0507812 L 268.109375 0.0507812 L 268.109375 267.1875 L 0.96875 267.1875 Z M 0.96875 0.0507812 " clip-rule="nonzero"/></clipPath><clipPath id="329904ad6d"><path d="M 134.539062 0.0507812 C 60.769531 0.0507812 0.96875 59.851562 0.96875 133.621094 C 0.96875 207.386719 60.769531 267.1875 134.539062 267.1875 C 208.304688 267.1875 268.109375 207.386719 268.109375 133.621094 C 268.109375 59.851562 208.304688 0.0507812 134.539062 0.0507812 Z M 134.539062 0.0507812 " clip-rule="nonzero"/></clipPath><clipPath id="1a08137d4c"><rect x="0" width="269" y="0" height="268"/></clipPath><clipPath id="0b8b6a6ee5"><rect x="0" width="455" y="0" height="455"/></clipPath><clipPath id="9aa0e33f8e"><path d="M 289.28125 300.507812 L 522.53125 300.507812 L 522.53125 532.257812 L 289.28125 532.257812 Z M 289.28125 300.507812 " clip-rule="nonzero"/></clipPath><clipPath id="fb09eab33d"><path d="M 356 354 L 477 354 L 477 470.578125 L 356 470.578125 Z M 356 354 " clip-rule="nonzero"/></clipPath><clipPath id="43f17f74cc"><path d="M 340.214844 356.097656 L 456.332031 356.097656 L 456.332031 467.019531 L 340.214844 467.019531 Z M 340.214844 356.097656 " clip-rule="nonzero"/></clipPath><clipPath id="0191d67559"><path d="M 376.964844 356.097656 L 419.546875 356.097656 C 439.84375 356.097656 456.296875 372.550781 456.296875 392.847656 L 456.296875 430.269531 C 456.296875 450.566406 439.84375 467.019531 419.546875 467.019531 L 376.964844 467.019531 C 356.667969 467.019531 340.214844 450.566406 340.214844 430.269531 L 340.214844 392.847656 C 340.214844 372.550781 356.667969 356.097656 376.964844 356.097656 Z M 376.964844 356.097656 " clip-rule="nonzero"/></clipPath><clipPath id="469a366156"><path d="M 0.214844 0.0976562 L 116.332031 0.0976562 L 116.332031 111.019531 L 0.214844 111.019531 Z M 0.214844 0.0976562 " clip-rule="nonzero"/></clipPath><clipPath id="97be2d3a2b"><path d="M 36.964844 0.0976562 L 79.546875 0.0976562 C 99.84375 0.0976562 116.296875 16.550781 116.296875 36.847656 L 116.296875 74.269531 C 116.296875 94.566406 99.84375 111.019531 79.546875 111.019531 L 36.964844 111.019531 C 16.667969 111.019531 0.214844 94.566406 0.214844 74.269531 L 0.214844 36.847656 C 0.214844 16.550781 16.667969 0.0976562 36.964844 0.0976562 Z M 36.964844 0.0976562 " clip-rule="nonzero"/></clipPath><clipPath id="0035a25eaf"><rect x="0" width="117" y="0" height="112"/></clipPath><clipPath id="e994527d5b"><path d="M 351 354 L 472.769531 354 L 472.769531 470.578125 L 351 470.578125 Z M 351 354 " clip-rule="nonzero"/></clipPath><clipPath id="a5859bded1"><rect x="0" width="333" y="0" height="141"/></clipPath><clipPath id="e6408ac90a"><rect x="0" width="331" y="0" height="146"/></clipPath></defs><rect x="-81" width="972" fill="#ffffff" y="-80.999999" height="971.999992" fill-opacity="1"/><rect x="-81" width="972" fill="#000000" y="-80.999999" height="971.999992" fill-opacity="1"/><g transform="matrix(1, 0, 0, 1, 176, 192)"><g clip-path="url(#0b8b6a6ee5)"><g clip-path="url(#37b2bd3a51)"><path fill="#ffffff" d="M 227.539062 29.050781 C 118.15625 29.050781 29.347656 117.859375 29.347656 227.242188 C 29.347656 336.625 118.15625 425.429688 227.539062 425.429688 C 336.921875 425.429688 425.726562 336.625 425.726562 227.242188 C 425.726562 117.859375 336.921875 29.050781 227.539062 29.050781 Z M 227.539062 34.84375 C 333.722656 34.84375 419.933594 121.054688 419.933594 227.242188 C 419.933594 333.429688 333.722656 419.636719 227.539062 419.636719 C 121.351562 419.636719 35.140625 333.429688 35.140625 227.242188 C 35.140625 121.054688 121.351562 34.84375 227.539062 34.84375 Z M 227.539062 34.84375 " fill-opacity="1" fill-rule="evenodd"/></g><path fill="#ffffff" d="M 227.539062 42.902344 C 125.796875 42.902344 43.199219 125.5 43.199219 227.242188 C 43.199219 328.980469 125.796875 411.582031 227.539062 411.582031 C 329.277344 411.582031 411.878906 328.980469 411.878906 227.242188 C 411.878906 125.5 329.277344 42.902344 227.539062 42.902344 Z M 227.539062 48.695312 C 326.082031 48.695312 406.085938 128.699219 406.085938 227.242188 C 406.085938 325.785156 326.082031 405.789062 227.539062 405.789062 C 128.996094 405.789062 48.992188 325.785156 48.992188 227.242188 C 48.992188 128.699219 128.996094 48.695312 227.539062 48.695312 Z M 227.539062 48.695312 " fill-opacity="1" fill-rule="evenodd"/><path fill="#ffffff" d="M 227.539062 105.214844 C 160.191406 105.214844 105.511719 159.894531 105.511719 227.242188 C 105.511719 294.589844 160.191406 349.265625 227.539062 349.265625 C 294.886719 349.265625 349.5625 294.589844 349.5625 227.242188 C 349.5625 159.894531 294.886719 105.214844 227.539062 105.214844 Z M 227.539062 111.007812 C 291.6875 111.007812 343.769531 163.089844 343.769531 227.242188 C 343.769531 291.390625 291.6875 343.472656 227.539062 343.472656 C 163.386719 343.472656 111.304688 291.390625 111.304688 227.242188 C 111.304688 163.089844 163.386719 111.007812 227.539062 111.007812 Z M 227.539062 111.007812 " fill-opacity="1" fill-rule="evenodd"/><g clip-path="url(#d70c367d4e)"><g clip-path="url(#17afe0f49b)"><g transform="matrix(1, 0, 0, 1, 93, 86)"><g clip-path="url(#1a08137d4c)"><g clip-path="url(#b9cf8dd075)"><g clip-path="url(#329904ad6d)"><path fill="#000000" d="M 0.96875 0.0507812 L 268.109375 0.0507812 L 268.109375 267.1875 L 0.96875 267.1875 Z M 0.96875 0.0507812 " fill-opacity="1" fill-rule="nonzero"/></g></g></g></g></g></g></g></g><g clip-path="url(#9aa0e33f8e)"><path fill="#ffffff" d="M 408.238281 231.808594 C 306.285156 231.808594 223.515625 314.582031 223.515625 416.535156 C 223.515625 518.488281 306.285156 601.261719 408.238281 601.261719 C 510.195312 601.261719 592.964844 518.488281 592.964844 416.535156 C 592.964844 314.582031 510.195312 231.808594 408.238281 231.808594 Z M 408.238281 237.210938 C 507.214844 237.210938 587.566406 317.5625 587.566406 416.535156 C 587.566406 515.507812 507.214844 595.863281 408.238281 595.863281 C 309.265625 595.863281 228.914062 515.507812 228.914062 416.535156 C 228.914062 317.5625 309.265625 237.210938 408.238281 237.210938 Z M 408.238281 237.210938 " fill-opacity="1" fill-rule="evenodd"/><path fill="#ffffff" d="M 408.238281 244.71875 C 313.410156 244.71875 236.421875 321.707031 236.421875 416.535156 C 236.421875 511.363281 313.410156 588.355469 408.238281 588.355469 C 503.070312 588.355469 580.058594 511.363281 580.058594 416.535156 C 580.058594 321.707031 503.070312 244.71875 408.238281 244.71875 Z M 408.238281 250.117188 C 500.089844 250.117188 574.660156 324.6875 574.660156 416.535156 C 574.660156 508.386719 500.089844 582.953125 408.238281 582.953125 C 316.390625 582.953125 241.820312 508.386719 241.820312 416.535156 C 241.820312 324.6875 316.390625 250.117188 408.238281 250.117188 Z M 408.238281 250.117188 " fill-opacity="1" fill-rule="evenodd"/></g><path fill="#ffffff" d="M 408.238281 302.800781 C 345.46875 302.800781 294.503906 353.761719 294.503906 416.535156 C 294.503906 479.308594 345.46875 530.273438 408.238281 530.273438 C 471.011719 530.273438 521.976562 479.308594 521.976562 416.535156 C 521.976562 353.761719 471.011719 302.800781 408.238281 302.800781 Z M 408.238281 308.199219 C 468.03125 308.199219 516.578125 356.742188 516.578125 416.535156 C 516.578125 476.328125 468.03125 524.871094 408.238281 524.871094 C 348.449219 524.871094 299.902344 476.328125 299.902344 416.535156 C 299.902344 356.742188 348.449219 308.199219 408.238281 308.199219 Z M 408.238281 308.199219 " fill-opacity="1" fill-rule="evenodd"/><g clip-path="url(#fb09eab33d)"><path fill="#ffffff" d="M 435.738281 470.234375 C 423.894531 470.234375 411.414062 467.304688 400.910156 461.507812 C 399.636719 460.808594 398.742188 459.597656 398.488281 458.261719 L 410.269531 458.261719 C 413.898438 458.261719 413.898438 452.785156 410.269531 452.785156 C 401.734375 452.785156 393.203125 452.785156 384.671875 452.785156 C 381.042969 452.785156 381.042969 447.308594 384.671875 447.308594 L 402.375 447.308594 C 403.265625 447.183594 404.347656 446.035156 404.347656 444.699219 C 404.347656 443.171875 403.136719 441.960938 401.609375 441.960938 L 387.089844 441.960938 C 383.460938 441.960938 383.460938 436.484375 387.089844 436.484375 L 403.011719 436.484375 C 404.09375 436.421875 405.175781 436.738281 406.128906 437.441406 C 415.363281 444.125 424.53125 448.390625 436.183594 448.390625 C 443.0625 448.390625 450.640625 446.480469 452.167969 440.179688 L 438.605469 440.179688 C 434.976562 440.179688 434.976562 434.703125 438.605469 434.703125 L 452.167969 434.703125 C 455.542969 434.257812 455.222656 429.226562 451.785156 429.226562 C 442.550781 429.226562 433.382812 429.226562 424.148438 429.226562 C 420.519531 429.226562 420.519531 423.75 424.148438 423.75 C 427.332031 423.75 430.453125 423.75 433.636719 423.75 C 437.265625 423.75 437.265625 418.273438 433.636719 418.273438 C 421.222656 418.273438 408.804688 418.273438 396.386719 418.273438 C 392.757812 418.273438 392.757812 412.796875 396.386719 412.796875 L 417.210938 412.796875 C 420.839844 412.796875 420.839844 407.320312 417.210938 407.320312 C 408.359375 407.320312 399.507812 407.320312 390.65625 407.320312 C 387.027344 407.320312 387.027344 401.84375 390.65625 401.84375 L 405.8125 401.84375 C 409.441406 401.84375 409.441406 396.371094 405.8125 396.371094 L 377.730469 396.371094 C 374.101562 396.371094 374.101562 390.894531 377.730469 390.894531 L 394.921875 390.894531 C 397.914062 390.640625 398.042969 385.480469 394.476562 385.480469 L 389.765625 385.480469 C 386.136719 385.480469 386.136719 380.003906 389.765625 380.003906 L 402.820312 380.003906 C 403.773438 379.878906 404.921875 378.730469 404.921875 377.332031 C 404.921875 375.992188 403.902344 374.847656 402.628906 374.65625 L 387.726562 374.65625 C 384.097656 374.65625 384.097656 369.179688 387.726562 369.179688 L 411.03125 369.179688 C 414.597656 369.179688 414.535156 364.023438 411.480469 363.769531 L 395.941406 363.769531 C 392.3125 363.769531 392.3125 358.292969 395.941406 358.292969 L 411.796875 358.292969 C 413.007812 357.71875 414.28125 357.273438 415.617188 356.828125 C 427.460938 352.878906 443 354.089844 454.394531 358.101562 C 459.808594 360.011719 464.839844 362.621094 469.550781 365.804688 C 471.78125 367.332031 472.351562 370.390625 470.824219 372.617188 L 463.3125 383.507812 C 461.847656 385.671875 458.917969 386.246094 456.6875 384.90625 C 448.730469 380.003906 440.386719 376.3125 431.21875 376.3125 C 423.578125 376.3125 416.699219 379.050781 416.699219 386.5 C 416.699219 393.566406 422.113281 395.859375 429.054688 397.960938 C 450.382812 404.457031 477 407.511719 477 435.210938 C 477 459.152344 458.214844 470.234375 435.738281 470.234375 Z M 426.886719 434.574219 L 431.28125 434.574219 C 434.910156 434.574219 434.910156 440.050781 431.28125 440.050781 L 426.886719 440.050781 C 423.324219 440.050781 423.324219 434.574219 426.886719 434.574219 Z M 358.753906 368.925781 C 361.109375 368.925781 364.996094 368.289062 364.996094 371.664062 C 364.996094 375.039062 361.109375 374.402344 358.753906 374.402344 C 355.125 374.402344 355.125 368.925781 358.753906 368.925781 Z M 369.644531 368.925781 L 380.023438 368.925781 C 383.652344 368.925781 383.652344 374.402344 380.023438 374.402344 L 369.644531 374.402344 C 366.015625 374.402344 366.015625 368.925781 369.644531 368.925781 Z M 404.921875 423.621094 L 411.667969 423.621094 C 415.300781 423.621094 415.300781 429.097656 411.667969 429.097656 L 404.921875 429.097656 C 401.289062 429.097656 401.289062 423.621094 404.921875 423.621094 Z M 385.054688 358.035156 L 389.128906 358.035156 C 392.757812 358.035156 392.757812 363.511719 389.128906 363.511719 L 385.054688 363.511719 C 381.421875 363.511719 381.421875 358.035156 385.054688 358.035156 Z M 379.769531 401.65625 L 383.652344 401.65625 C 387.28125 401.65625 387.28125 407.128906 383.652344 407.128906 L 379.769531 407.128906 C 376.140625 407.195312 376.140625 401.65625 379.769531 401.65625 Z M 360.027344 390.703125 L 370.664062 390.703125 C 374.292969 390.703125 374.292969 396.179688 370.664062 396.179688 L 360.027344 396.179688 C 356.398438 396.179688 356.398438 390.703125 360.027344 390.703125 Z M 374.226562 447.308594 C 376.585938 447.308594 380.53125 446.671875 380.53125 450.046875 C 380.53125 453.421875 376.648438 452.785156 374.226562 452.785156 C 370.597656 452.785156 370.597656 447.308594 374.226562 447.308594 Z M 374.226562 447.308594 " fill-opacity="1" fill-rule="evenodd"/></g><g clip-path="url(#43f17f74cc)"><g clip-path="url(#0191d67559)"><g transform="matrix(1, 0, 0, 1, 340, 356)"><g clip-path="url(#0035a25eaf)"><g clip-path="url(#469a366156)"><g clip-path="url(#97be2d3a2b)"><path fill="#ffffff" d="M 0.214844 0.0976562 L 116.332031 0.0976562 L 116.332031 111.019531 L 0.214844 111.019531 Z M 0.214844 0.0976562 " fill-opacity="1" fill-rule="nonzero"/></g></g></g></g></g></g><g clip-path="url(#e994527d5b)"><path fill="#000000" d="M 431.132812 470.234375 C 419.289062 470.234375 406.808594 467.304688 396.304688 461.507812 C 395.03125 460.808594 394.140625 459.597656 393.882812 458.261719 L 405.664062 458.261719 C 409.292969 458.261719 409.292969 452.785156 405.664062 452.785156 C 397.132812 452.785156 388.597656 452.785156 380.066406 452.785156 C 376.4375 452.785156 376.4375 447.308594 380.066406 447.308594 L 397.769531 447.308594 C 398.660156 447.183594 399.742188 446.035156 399.742188 444.699219 C 399.742188 443.171875 398.53125 441.960938 397.003906 441.960938 L 382.484375 441.960938 C 378.855469 441.960938 378.855469 436.484375 382.484375 436.484375 L 398.40625 436.484375 C 399.488281 436.421875 400.570312 436.738281 401.523438 437.441406 C 410.757812 444.125 419.925781 448.390625 431.578125 448.390625 C 438.457031 448.390625 446.035156 446.480469 447.5625 440.179688 L 434 440.179688 C 430.371094 440.179688 430.371094 434.703125 434 434.703125 L 447.5625 434.703125 C 450.9375 434.257812 450.617188 429.226562 447.179688 429.226562 C 437.949219 429.226562 428.777344 429.226562 419.546875 429.226562 C 415.914062 429.226562 415.914062 423.75 419.546875 423.75 C 422.730469 423.75 425.847656 423.75 429.03125 423.75 C 432.664062 423.75 432.664062 418.273438 429.03125 418.273438 C 416.617188 418.273438 404.199219 418.273438 391.78125 418.273438 C 388.152344 418.273438 388.152344 412.796875 391.78125 412.796875 L 412.605469 412.796875 C 416.234375 412.796875 416.234375 407.320312 412.605469 407.320312 C 403.753906 407.320312 394.902344 407.320312 386.050781 407.320312 C 382.421875 407.320312 382.421875 401.84375 386.050781 401.84375 L 401.207031 401.84375 C 404.835938 401.84375 404.835938 396.371094 401.207031 396.371094 L 373.125 396.371094 C 369.496094 396.371094 369.496094 390.894531 373.125 390.894531 L 390.316406 390.894531 C 393.3125 390.640625 393.4375 385.480469 389.871094 385.480469 L 385.160156 385.480469 C 381.53125 385.480469 381.53125 380.003906 385.160156 380.003906 L 398.214844 380.003906 C 399.167969 379.878906 400.316406 378.730469 400.316406 377.332031 C 400.316406 375.992188 399.296875 374.847656 398.023438 374.65625 L 383.121094 374.65625 C 379.492188 374.65625 379.492188 369.179688 383.121094 369.179688 L 406.429688 369.179688 C 409.992188 369.179688 409.929688 364.023438 406.875 363.769531 L 391.335938 363.769531 C 387.707031 363.769531 387.707031 358.292969 391.335938 358.292969 L 407.191406 358.292969 C 408.402344 357.71875 409.675781 357.273438 411.011719 356.828125 C 422.855469 352.878906 438.394531 354.089844 449.792969 358.101562 C 455.203125 360.011719 460.234375 362.621094 464.945312 365.804688 C 467.175781 367.332031 467.746094 370.390625 466.21875 372.617188 L 458.707031 383.507812 C 457.242188 385.671875 454.3125 386.246094 452.082031 384.90625 C 444.125 380.003906 435.78125 376.3125 426.613281 376.3125 C 418.972656 376.3125 412.09375 379.050781 412.09375 386.5 C 412.09375 393.566406 417.507812 395.859375 424.449219 397.960938 C 445.78125 404.457031 472.394531 407.511719 472.394531 435.210938 C 472.394531 459.152344 453.613281 470.234375 431.132812 470.234375 Z M 422.285156 434.574219 L 426.675781 434.574219 C 430.304688 434.574219 430.304688 440.050781 426.675781 440.050781 L 422.285156 440.050781 C 418.71875 440.050781 418.71875 434.574219 422.285156 434.574219 Z M 354.152344 368.925781 C 356.507812 368.925781 360.390625 368.289062 360.390625 371.664062 C 360.390625 375.039062 356.507812 374.402344 354.152344 374.402344 C 350.519531 374.402344 350.519531 368.925781 354.152344 368.925781 Z M 365.039062 368.925781 L 375.417969 368.925781 C 379.046875 368.925781 379.046875 374.402344 375.417969 374.402344 L 365.039062 374.402344 C 361.410156 374.402344 361.410156 368.925781 365.039062 368.925781 Z M 400.316406 423.621094 L 407.066406 423.621094 C 410.695312 423.621094 410.695312 429.097656 407.066406 429.097656 L 400.316406 429.097656 C 396.6875 429.097656 396.6875 423.621094 400.316406 423.621094 Z M 380.449219 358.035156 L 384.523438 358.035156 C 388.152344 358.035156 388.152344 363.511719 384.523438 363.511719 L 380.449219 363.511719 C 376.820312 363.511719 376.820312 358.035156 380.449219 358.035156 Z M 375.164062 401.65625 L 379.046875 401.65625 C 382.675781 401.65625 382.675781 407.128906 379.046875 407.128906 L 375.164062 407.128906 C 371.535156 407.195312 371.535156 401.65625 375.164062 401.65625 Z M 355.425781 390.703125 L 366.058594 390.703125 C 369.6875 390.703125 369.6875 396.179688 366.058594 396.179688 L 355.425781 396.179688 C 351.792969 396.179688 351.792969 390.703125 355.425781 390.703125 Z M 369.625 447.308594 C 371.980469 447.308594 375.925781 446.671875 375.925781 450.046875 C 375.925781 453.421875 372.042969 452.785156 369.625 452.785156 C 365.996094 452.785156 365.996094 447.308594 369.625 447.308594 Z M 369.625 447.308594 " fill-opacity="1" fill-rule="evenodd"/></g><g transform="matrix(1, 0, 0, 1, 231, 442)"><g clip-path="url(#a5859bded1)"><g fill="#ffffff" fill-opacity="1"><g transform="translate(300.661613, 13.829791)"><g><path d="M -9.90625 22.859375 C -9.90625 22.921875 -9.929688 22.960938 -9.984375 22.984375 C -10.054688 23.003906 -10.117188 23 -10.171875 22.96875 L -11.734375 22.140625 C -11.734375 22.140625 -11.742188 22.117188 -11.765625 22.078125 C -11.785156 22.054688 -11.796875 22.046875 -11.796875 22.046875 C -11.796875 22.046875 -11.804688 22.03125 -11.828125 22 C -11.804688 21.96875 -11.796875 21.953125 -11.796875 21.953125 C -11.828125 21.929688 -11.835938 21.90625 -11.828125 21.875 L -4.890625 8.796875 L -3.015625 5.28125 L -2 3.34375 L -1.828125 3.03125 C -1.765625 2.914062 -1.675781 2.890625 -1.5625 2.953125 C -1.445312 3.015625 -1.421875 3.101562 -1.484375 3.21875 C -1.535156 3.320312 -1.507812 3.398438 -1.40625 3.453125 L 26.46875 18.234375 C 26.582031 18.296875 26.664062 18.273438 26.71875 18.171875 C 26.78125 18.054688 26.863281 18.023438 26.96875 18.078125 C 27.082031 18.140625 27.109375 18.226562 27.046875 18.34375 L 26.875 18.65625 C 26.863281 18.6875 26.859375 18.703125 26.859375 18.703125 L 25.875 20.546875 C 25.875 20.546875 25.867188 20.5625 25.859375 20.59375 L 25.6875 20.921875 C 25.625 21.023438 25.535156 21.046875 25.421875 20.984375 C 25.316406 20.929688 25.296875 20.851562 25.359375 20.75 C 25.410156 20.632812 25.378906 20.546875 25.265625 20.484375 L -2.765625 5.625 L -4.546875 8.984375 C -5.328125 10.460938 -6.046875 12 -6.703125 13.59375 C -7.359375 15.195312 -7.914062 16.695312 -8.375 18.09375 C -8.84375 19.488281 -9.210938 20.625 -9.484375 21.5 C -9.753906 22.375 -9.894531 22.828125 -9.90625 22.859375 Z M -9.90625 22.859375 "/></g></g></g><g fill="#ffffff" fill-opacity="1"><g transform="translate(289.806045, 34.718096)"><g><path d="M 10.390625 39.546875 C 10.390625 39.546875 10.375 39.535156 10.34375 39.515625 C 10.320312 39.535156 10.3125 39.546875 10.3125 39.546875 L 8.875 38.453125 C 8.832031 38.410156 8.816406 38.359375 8.828125 38.296875 C 8.816406 38.242188 8.820312 38.207031 8.84375 38.1875 C 8.863281 38.15625 8.875 38.140625 8.875 38.140625 C 8.914062 38.140625 9.273438 37.835938 9.953125 37.234375 C 10.640625 36.628906 11.519531 35.820312 12.59375 34.8125 C 13.664062 33.8125 14.796875 32.679688 15.984375 31.421875 C 17.179688 30.171875 18.289062 28.878906 19.3125 27.546875 L 21.625 24.546875 L 9.59375 15.296875 L 1.875 25.34375 C 1.800781 25.4375 1.71875 25.445312 1.625 25.375 C 1.519531 25.289062 1.503906 25.203125 1.578125 25.109375 L 9.296875 15.0625 L -3.671875 5.078125 L -5.984375 8.078125 C -7.003906 9.410156 -7.96875 10.8125 -8.875 12.28125 C -9.789062 13.75 -10.59375 15.132812 -11.28125 16.4375 C -11.976562 17.738281 -12.53125 18.796875 -12.9375 19.609375 C -13.351562 20.421875 -13.570312 20.835938 -13.59375 20.859375 C -13.613281 20.929688 -13.640625 20.972656 -13.671875 20.984375 C -13.765625 20.992188 -13.820312 20.988281 -13.84375 20.96875 L -15.28125 19.859375 C -15.28125 19.859375 -15.28125 19.835938 -15.28125 19.796875 C -15.3125 19.773438 -15.328125 19.765625 -15.328125 19.765625 C -15.328125 19.765625 -15.328125 19.75 -15.328125 19.71875 C -15.316406 19.6875 -15.3125 19.671875 -15.3125 19.671875 C -15.34375 19.648438 -15.347656 19.628906 -15.328125 19.609375 L -6.296875 7.859375 L -3.859375 4.703125 L -2.53125 2.96875 L -2.3125 2.6875 C -2.226562 2.59375 -2.132812 2.582031 -2.03125 2.65625 C -1.925781 2.726562 -1.914062 2.8125 -2 2.90625 C -2.070312 3.007812 -2.0625 3.101562 -1.96875 3.1875 L 23.03125 22.421875 C 23.132812 22.492188 23.222656 22.476562 23.296875 22.375 C 23.378906 22.28125 23.46875 22.269531 23.5625 22.34375 C 23.664062 22.425781 23.675781 22.515625 23.59375 22.609375 L 22.046875 24.625 L 10.578125 39.53125 C 10.578125 39.53125 10.5625 39.519531 10.53125 39.5 C 10.507812 39.519531 10.5 39.53125 10.5 39.53125 C 10.5 39.53125 10.492188 39.546875 10.484375 39.578125 C 10.484375 39.578125 10.472656 39.566406 10.453125 39.546875 C 10.429688 39.566406 10.421875 39.578125 10.421875 39.578125 C 10.421875 39.578125 10.410156 39.566406 10.390625 39.546875 Z M 10.390625 39.546875 "/></g></g></g><g fill="#ffffff" fill-opacity="1"><g transform="translate(275.373519, 53.91621)"><g><path d="M 1.546875 42.34375 C 1.546875 42.34375 1.535156 42.332031 1.515625 42.3125 L 0.296875 40.96875 C 0.253906 40.925781 0.234375 40.878906 0.234375 40.828125 C 0.242188 40.785156 0.257812 40.753906 0.28125 40.734375 C 0.300781 40.710938 0.332031 40.703125 0.375 40.703125 C 0.375 40.703125 0.65625 40.5625 1.21875 40.28125 C 1.789062 40 2.523438 39.609375 3.421875 39.109375 C 4.316406 38.617188 5.257812 38.039062 6.25 37.375 C 7.238281 36.71875 8.15625 36.003906 9 35.234375 L 10.375 33.984375 L -11.25 10.25 C -11.332031 10.15625 -11.328125 10.066406 -11.234375 9.984375 L -9.625 8.515625 C -9.5625 8.453125 -9.488281 8.46875 -9.40625 8.5625 L 12.21875 32.296875 L 13.640625 31.015625 C 14.460938 30.265625 15.25 29.425781 16 28.5 C 16.75 27.570312 17.40625 26.6875 17.96875 25.84375 C 18.539062 25.007812 19 24.316406 19.34375 23.765625 C 19.6875 23.222656 19.867188 22.941406 19.890625 22.921875 C 19.867188 22.898438 19.867188 22.878906 19.890625 22.859375 C 19.910156 22.835938 19.941406 22.828125 19.984375 22.828125 C 20.054688 22.816406 20.113281 22.832031 20.15625 22.875 L 21.375 24.21875 C 21.394531 24.238281 21.40625 24.25 21.40625 24.25 C 21.40625 24.25 21.398438 24.269531 21.390625 24.3125 C 21.410156 24.332031 21.410156 24.351562 21.390625 24.375 C 21.367188 24.394531 21.359375 24.40625 21.359375 24.40625 C 21.359375 24.457031 21.359375 24.484375 21.359375 24.484375 L 13.890625 31.296875 L 13.84375 31.328125 L 12.375 32.671875 C 12.375 32.671875 12.234375 32.796875 11.953125 33.046875 C 11.679688 33.296875 11.414062 33.539062 11.15625 33.78125 C 10.894531 34.019531 10.765625 34.140625 10.765625 34.140625 L 9.28125 35.484375 L 9.25 35.515625 L 1.75 42.359375 C 1.75 42.359375 1.738281 42.34375 1.71875 42.3125 C 1.695312 42.332031 1.6875 42.34375 1.6875 42.34375 C 1.6875 42.34375 1.671875 42.351562 1.640625 42.375 C 1.640625 42.375 1.628906 42.363281 1.609375 42.34375 C 1.609375 42.34375 1.597656 42.351562 1.578125 42.375 C 1.578125 42.375 1.566406 42.363281 1.546875 42.34375 Z M 1.546875 42.34375 "/></g></g></g><g fill="#ffffff" fill-opacity="1"><g transform="translate(255.455582, 71.382215)"><g><path d="M 14.828125 28.78125 C 14.390625 28.707031 14.039062 28.492188 13.78125 28.140625 C 13.53125 27.785156 13.457031 27.410156 13.5625 27.015625 L 13.875 24.890625 C 13.90625 24.835938 13.929688 24.800781 13.953125 24.78125 C 14.003906 24.75 14.050781 24.734375 14.09375 24.734375 C 14.144531 24.742188 14.1875 24.773438 14.21875 24.828125 C 14.238281 24.847656 14.242188 24.882812 14.234375 24.9375 L 14.0625 26.078125 C 14.082031 26.054688 14.109375 26.035156 14.140625 26.015625 C 14.492188 25.765625 14.890625 25.671875 15.328125 25.734375 C 15.734375 25.773438 16.066406 25.972656 16.328125 26.328125 C 16.578125 26.679688 16.664062 27.070312 16.59375 27.5 C 16.53125 27.9375 16.320312 28.28125 15.96875 28.53125 C 15.644531 28.757812 15.265625 28.84375 14.828125 28.78125 Z M 14.828125 28.78125 "/></g></g></g><g fill="#ffffff" fill-opacity="1"><g transform="translate(251.002032, 75.478239)"><g><path d="M 3.140625 35.9375 C 1.429688 36.875 -0.289062 37.515625 -2.03125 37.859375 C -3.769531 38.203125 -5.382812 38.238281 -6.875 37.96875 C -8.363281 37.695312 -9.601562 37.128906 -10.59375 36.265625 C -10.65625 36.222656 -10.675781 36.179688 -10.65625 36.140625 C -10.664062 36.066406 -10.640625 36.015625 -10.578125 35.984375 L -9.15625 34.828125 C -9.101562 34.796875 -9.054688 34.785156 -9.015625 34.796875 C -8.960938 34.804688 -8.921875 34.835938 -8.890625 34.890625 C -8.273438 35.890625 -7.332031 36.585938 -6.0625 36.984375 C -4.800781 37.390625 -3.375 37.476562 -1.78125 37.25 C -0.195312 37.019531 1.378906 36.472656 2.953125 35.609375 C 4.546875 34.722656 5.863281 33.65625 6.90625 32.40625 C 7.945312 31.15625 8.617188 29.878906 8.921875 28.578125 C 9.234375 27.273438 9.097656 26.097656 8.515625 25.046875 C 8.015625 24.148438 7.253906 23.46875 6.234375 23 C 5.222656 22.539062 4.039062 22.335938 2.6875 22.390625 L -12.21875 22.953125 C -13.96875 23.035156 -15.503906 22.785156 -16.828125 22.203125 C -18.148438 21.617188 -19.132812 20.742188 -19.78125 19.578125 C -20.507812 18.265625 -20.679688 16.785156 -20.296875 15.140625 C -19.921875 13.492188 -19.085938 11.890625 -17.796875 10.328125 C -16.503906 8.765625 -14.84375 7.421875 -12.8125 6.296875 C -11.132812 5.367188 -9.421875 4.734375 -7.671875 4.390625 C -5.929688 4.046875 -4.316406 4.003906 -2.828125 4.265625 C -1.335938 4.535156 -0.09375 5.101562 0.90625 5.96875 C 0.9375 6.019531 0.945312 6.066406 0.9375 6.109375 C 0.96875 6.160156 0.957031 6.203125 0.90625 6.234375 L -0.515625 7.390625 C -0.566406 7.421875 -0.628906 7.441406 -0.703125 7.453125 C -0.742188 7.429688 -0.78125 7.394531 -0.8125 7.34375 C -1.4375 6.34375 -2.378906 5.644531 -3.640625 5.25 C -4.898438 4.851562 -6.316406 4.765625 -7.890625 4.984375 C -9.472656 5.203125 -11.050781 5.75 -12.625 6.625 C -14.25 7.519531 -15.578125 8.585938 -16.609375 9.828125 C -17.648438 11.078125 -18.320312 12.351562 -18.625 13.65625 C -18.9375 14.957031 -18.800781 16.132812 -18.21875 17.1875 C -17.738281 18.050781 -16.988281 18.722656 -15.96875 19.203125 C -14.945312 19.679688 -13.738281 19.894531 -12.34375 19.84375 L 2.53125 19.21875 C 4.269531 19.1875 5.796875 19.457031 7.109375 20.03125 C 8.421875 20.613281 9.398438 21.488281 10.046875 22.65625 C 10.785156 23.988281 10.960938 25.472656 10.578125 27.109375 C 10.203125 28.742188 9.367188 30.34375 8.078125 31.90625 C 6.785156 33.476562 5.140625 34.820312 3.140625 35.9375 Z M 3.140625 35.9375 "/></g></g></g><g fill="#ffffff" fill-opacity="1"><g transform="translate(227.036187, 88.315052)"><g/></g></g><g fill="#ffffff" fill-opacity="1"><g transform="translate(214.960384, 93.519728)"><g><path d="M -19.5 37.609375 C -19.5 37.609375 -19.503906 37.59375 -19.515625 37.5625 L -19.90625 35.796875 C -19.925781 35.734375 -19.921875 35.6875 -19.890625 35.65625 C -19.867188 35.613281 -19.84375 35.585938 -19.8125 35.578125 C -19.78125 35.578125 -19.75 35.585938 -19.71875 35.609375 C -19.71875 35.609375 -19.394531 35.625 -18.75 35.65625 C -18.113281 35.695312 -17.285156 35.71875 -16.265625 35.71875 C -15.253906 35.726562 -14.15625 35.691406 -12.96875 35.609375 C -11.78125 35.523438 -10.628906 35.359375 -9.515625 35.109375 L -7.703125 34.703125 L -14.84375 3.390625 C -14.875 3.265625 -14.828125 3.1875 -14.703125 3.15625 L -12.578125 2.671875 C -12.492188 2.648438 -12.4375 2.703125 -12.40625 2.828125 L -5.265625 34.140625 L -3.40625 33.71875 C -2.3125 33.46875 -1.210938 33.117188 -0.109375 32.671875 C 0.992188 32.234375 2 31.789062 2.90625 31.34375 C 3.820312 30.90625 4.5625 30.53125 5.125 30.21875 C 5.695312 29.90625 5.992188 29.75 6.015625 29.75 C 6.003906 29.71875 6.015625 29.695312 6.046875 29.6875 C 6.078125 29.675781 6.113281 29.6875 6.15625 29.71875 C 6.21875 29.726562 6.257812 29.765625 6.28125 29.828125 L 6.671875 31.59375 C 6.679688 31.625 6.6875 31.640625 6.6875 31.640625 C 6.6875 31.640625 6.675781 31.660156 6.65625 31.703125 C 6.65625 31.734375 6.640625 31.753906 6.609375 31.765625 C 6.578125 31.765625 6.5625 31.765625 6.5625 31.765625 C 6.539062 31.804688 6.53125 31.828125 6.53125 31.828125 L -3.328125 34.078125 L -3.375 34.078125 L -5.3125 34.53125 C -5.3125 34.53125 -5.492188 34.570312 -5.859375 34.65625 C -6.222656 34.738281 -6.578125 34.816406 -6.921875 34.890625 C -7.265625 34.972656 -7.4375 35.015625 -7.4375 35.015625 L -9.390625 35.453125 L -9.4375 35.46875 L -19.328125 37.71875 C -19.328125 37.71875 -19.332031 37.703125 -19.34375 37.671875 C -19.375 37.679688 -19.390625 37.6875 -19.390625 37.6875 C -19.390625 37.6875 -19.40625 37.691406 -19.4375 37.703125 C -19.4375 37.703125 -19.4375 37.6875 -19.4375 37.65625 C -19.4375 37.65625 -19.453125 37.65625 -19.484375 37.65625 C -19.484375 37.65625 -19.488281 37.640625 -19.5 37.609375 Z M -19.5 37.609375 "/></g></g></g><g fill="#ffffff" fill-opacity="1"><g transform="translate(189.955129, 99.501184)"><g><path d="M -28.390625 1.265625 C -28.484375 1.265625 -28.53125 1.203125 -28.53125 1.078125 C -28.53125 0.953125 -28.484375 0.890625 -28.390625 0.890625 L -25.28125 0.765625 C -25.15625 0.765625 -25.09375 0.828125 -25.09375 0.953125 C -25.09375 1.078125 -25.15625 1.140625 -25.28125 1.140625 C -25.3125 1.140625 -25.34375 1.140625 -25.375 1.140625 C -25.363281 1.203125 -25.359375 1.25 -25.359375 1.28125 L -22.4375 8.140625 C -21.84375 9.359375 -20.96875 10.304688 -19.8125 10.984375 C -18.65625 11.671875 -17.394531 11.988281 -16.03125 11.9375 C -15.226562 11.90625 -14.445312 11.734375 -13.6875 11.421875 C -13.050781 11.160156 -12.375 11 -11.65625 10.9375 C -10.363281 10.882812 -9.234375 11.296875 -8.265625 12.171875 C -7.304688 13.046875 -6.769531 14.132812 -6.65625 15.4375 L -1.609375 0.390625 C -1.578125 0.359375 -1.582031 0.3125 -1.625 0.25 C -1.625 0.25 -1.640625 0.25 -1.671875 0.25 C -1.796875 0.257812 -1.859375 0.203125 -1.859375 0.078125 C -1.859375 -0.046875 -1.796875 -0.113281 -1.671875 -0.125 L -0.921875 -0.15625 C -0.804688 -0.15625 -0.75 -0.09375 -0.75 0.03125 C -0.75 0.15625 -0.804688 0.21875 -0.921875 0.21875 C -1.066406 0.257812 -1.1875 0.359375 -1.28125 0.515625 L -8.546875 22.109375 C -8.941406 23.265625 -9.679688 24.109375 -10.765625 24.640625 C -11.859375 25.179688 -12.96875 25.253906 -14.09375 24.859375 C -14.757812 24.648438 -15.316406 24.316406 -15.765625 23.859375 L -12.1875 32.359375 C -12.082031 32.515625 -11.957031 32.59375 -11.8125 32.59375 C -11.6875 32.582031 -11.625 32.640625 -11.625 32.765625 C -11.613281 32.890625 -11.671875 32.957031 -11.796875 32.96875 L -14.484375 33.0625 C -14.578125 33.0625 -14.644531 33.019531 -14.6875 32.9375 L -28 1.53125 C -28.0625 1.375 -28.191406 1.285156 -28.390625 1.265625 Z M -16.015625 12.296875 C -18.304688 12.378906 -20.195312 11.570312 -21.6875 9.875 L -16.484375 22.171875 C -16.484375 22.171875 -16.46875 22.1875 -16.4375 22.21875 C -15.988281 23.34375 -15.179688 24.101562 -14.015625 24.5 C -12.953125 24.851562 -11.921875 24.785156 -10.921875 24.296875 C -9.921875 23.816406 -9.242188 23.039062 -8.890625 21.96875 L -7.25 17.125 C -7.082031 16.625 -7.007812 16.09375 -7.03125 15.53125 C -7.070312 14.320312 -7.539062 13.304688 -8.4375 12.484375 C -9.34375 11.660156 -10.410156 11.269531 -11.640625 11.3125 C -12.296875 11.363281 -12.925781 11.523438 -13.53125 11.796875 C -14.320312 12.097656 -15.148438 12.265625 -16.015625 12.296875 Z M -16.015625 12.296875 "/></g></g></g><g fill="#ffffff" fill-opacity="1"><g transform="translate(162.810166, 100.55475)"><g><path d="M -24.859375 -1.546875 C -24.921875 -1.523438 -24.96875 -1.53125 -25 -1.5625 C -25.050781 -1.632812 -25.070312 -1.703125 -25.0625 -1.765625 L -24.8125 -3.515625 C -24.8125 -3.515625 -24.796875 -3.53125 -24.765625 -3.5625 C -24.753906 -3.59375 -24.75 -3.609375 -24.75 -3.609375 C -24.75 -3.609375 -24.734375 -3.617188 -24.703125 -3.640625 C -24.671875 -3.640625 -24.65625 -3.640625 -24.65625 -3.640625 C -24.644531 -3.671875 -24.625 -3.679688 -24.59375 -3.671875 L -9.9375 -1.59375 L -5.984375 -1.046875 L -3.828125 -0.734375 L -3.46875 -0.6875 C -3.34375 -0.664062 -3.289062 -0.59375 -3.3125 -0.46875 C -3.332031 -0.34375 -3.40625 -0.289062 -3.53125 -0.3125 C -3.65625 -0.320312 -3.722656 -0.265625 -3.734375 -0.140625 L -8.171875 31.09375 C -8.179688 31.21875 -8.125 31.285156 -8 31.296875 C -7.875 31.316406 -7.820312 31.390625 -7.84375 31.515625 C -7.863281 31.628906 -7.9375 31.675781 -8.0625 31.65625 L -8.421875 31.609375 C -8.453125 31.609375 -8.46875 31.609375 -8.46875 31.609375 L -10.53125 31.3125 C -10.53125 31.3125 -10.546875 31.304688 -10.578125 31.296875 L -10.953125 31.25 C -11.078125 31.226562 -11.128906 31.160156 -11.109375 31.046875 C -11.085938 30.921875 -11.015625 30.867188 -10.890625 30.890625 C -10.765625 30.910156 -10.695312 30.859375 -10.6875 30.734375 L -6.234375 -0.6875 L -10 -1.21875 C -11.65625 -1.457031 -13.34375 -1.609375 -15.0625 -1.671875 C -16.789062 -1.742188 -18.390625 -1.757812 -19.859375 -1.71875 C -21.335938 -1.6875 -22.53125 -1.648438 -23.4375 -1.609375 C -24.351562 -1.566406 -24.828125 -1.546875 -24.859375 -1.546875 Z M -24.859375 -1.546875 "/></g></g></g><g fill="#ffffff" fill-opacity="1"><g transform="translate(139.486606, 97.467209)"><g><path d="M -24.5 -7.65625 C -24.519531 -7.664062 -24.539062 -7.6875 -24.5625 -7.71875 C -24.613281 -7.769531 -24.628906 -7.828125 -24.609375 -7.890625 C -24.566406 -8.003906 -24.488281 -8.039062 -24.375 -8 C -23.113281 -7.601562 -22.035156 -6.925781 -21.140625 -5.96875 C -20.242188 -5.007812 -19.644531 -3.890625 -19.34375 -2.609375 L -15.625 11.171875 C -15.570312 11.316406 -15.519531 11.445312 -15.46875 11.5625 C -15.15625 12.144531 -14.6875 12.535156 -14.0625 12.734375 C -13.445312 12.929688 -12.851562 12.882812 -12.28125 12.59375 L -10.296875 11.578125 L -6.078125 -1.546875 C -6.046875 -1.671875 -6.085938 -1.753906 -6.203125 -1.796875 C -6.328125 -1.835938 -6.367188 -1.914062 -6.328125 -2.03125 C -6.285156 -2.144531 -6.203125 -2.179688 -6.078125 -2.140625 L -3.296875 -1.25 C -3.179688 -1.207031 -3.144531 -1.128906 -3.1875 -1.015625 C -3.226562 -0.898438 -3.304688 -0.863281 -3.421875 -0.90625 C -3.546875 -0.945312 -3.625 -0.90625 -3.65625 -0.78125 L -7.234375 10.34375 L -13.296875 29.25 C -13.335938 29.375 -13.296875 29.457031 -13.171875 29.5 C -13.054688 29.539062 -13.015625 29.617188 -13.046875 29.734375 C -13.085938 29.859375 -13.164062 29.898438 -13.28125 29.859375 L -13.625 29.75 C -13.65625 29.738281 -13.671875 29.734375 -13.671875 29.734375 L -15.671875 29.09375 C -15.671875 29.09375 -15.679688 29.085938 -15.703125 29.078125 L -16.0625 28.96875 C -16.1875 28.925781 -16.226562 28.84375 -16.1875 28.71875 C -16.15625 28.601562 -16.078125 28.566406 -15.953125 28.609375 C -15.835938 28.648438 -15.757812 28.609375 -15.71875 28.484375 L -10.453125 12.0625 L -23.6875 18.828125 C -24.34375 19.160156 -25.082031 19.609375 -25.90625 20.171875 C -26.738281 20.734375 -27.546875 21.304688 -28.328125 21.890625 C -29.117188 22.484375 -29.769531 22.988281 -30.28125 23.40625 C -30.800781 23.832031 -31.078125 24.039062 -31.109375 24.03125 C -31.160156 24.09375 -31.210938 24.113281 -31.265625 24.09375 L -33.03125 23.53125 C -33.03125 23.53125 -33.039062 23.507812 -33.0625 23.46875 C -33.082031 23.457031 -33.09375 23.453125 -33.09375 23.453125 C -33.09375 23.453125 -33.097656 23.441406 -33.109375 23.421875 C -33.117188 23.398438 -33.125 23.390625 -33.125 23.390625 C -33.125 23.390625 -33.117188 23.375 -33.109375 23.34375 C -33.140625 23.332031 -33.148438 23.3125 -33.140625 23.28125 C -33.128906 23.25 -33.128906 23.25 -33.140625 23.28125 C -33.128906 23.25 -33.101562 23.226562 -33.0625 23.21875 C -33.0625 23.21875 -33.046875 23.207031 -33.015625 23.1875 L -15.0625 14.015625 L -13.84375 13.390625 C -14.445312 13.429688 -15.023438 13.363281 -15.578125 13.1875 C -16.753906 12.800781 -17.632812 12.046875 -18.21875 10.921875 C -18.363281 10.648438 -18.476562 10.335938 -18.5625 9.984375 L -22.765625 -5.75 C -22.773438 -5.71875 -22.773438 -5.71875 -22.765625 -5.75 C -22.972656 -6.71875 -23.550781 -7.351562 -24.5 -7.65625 Z M -24.5 -7.65625 "/></g></g></g><g fill="#ffffff" fill-opacity="1"><g transform="translate(115.889134, 89.601672)"><g/></g></g><g fill="#ffffff" fill-opacity="1"><g transform="translate(103.79554, 84.558517)"><g><path d="M -39.578125 12.640625 C -39.679688 12.566406 -39.695312 12.476562 -39.625 12.375 C -39.550781 12.269531 -39.460938 12.253906 -39.359375 12.328125 C -39.253906 12.390625 -39.171875 12.367188 -39.109375 12.265625 L -21.375 -14.28125 C -21.300781 -14.382812 -21.21875 -14.398438 -21.125 -14.328125 L -20.140625 -13.6875 C -20.066406 -13.632812 -20.035156 -13.570312 -20.046875 -13.5 L -20.46875 13.4375 C -20.46875 14.445312 -19.992188 15.269531 -19.046875 15.90625 C -18.285156 16.382812 -17.457031 16.535156 -16.5625 16.359375 C -15.675781 16.191406 -14.976562 15.722656 -14.46875 14.953125 L -3.296875 -1.75 C -3.234375 -1.851562 -3.25 -1.9375 -3.34375 -2 C -3.445312 -2.070312 -3.460938 -2.160156 -3.390625 -2.265625 C -3.316406 -2.367188 -3.226562 -2.382812 -3.125 -2.3125 L -2.515625 -1.90625 C -2.410156 -1.84375 -2.394531 -1.757812 -2.46875 -1.65625 C -2.539062 -1.550781 -2.628906 -1.53125 -2.734375 -1.59375 C -2.835938 -1.664062 -2.921875 -1.648438 -2.984375 -1.546875 L -14.15625 15.15625 C -14.71875 16.007812 -15.492188 16.53125 -16.484375 16.71875 C -17.484375 16.90625 -18.394531 16.722656 -19.21875 16.171875 C -19.78125 15.828125 -20.222656 15.367188 -20.546875 14.796875 L -20.703125 24.890625 C -20.710938 24.960938 -20.742188 25.015625 -20.796875 25.046875 C -20.867188 25.085938 -20.929688 25.085938 -20.984375 25.046875 L -23.140625 23.609375 C -23.191406 23.578125 -23.207031 23.523438 -23.1875 23.453125 L -22.625 -11.765625 L -38.8125 12.46875 C -38.875 12.570312 -38.835938 12.671875 -38.703125 12.765625 C -38.628906 12.816406 -38.628906 12.894531 -38.703125 13 C -38.773438 13.101562 -38.847656 13.128906 -38.921875 13.078125 Z M -39.578125 12.640625 "/></g></g></g><g fill="#ffffff" fill-opacity="1"><g transform="translate(81.019552, 70.246055)"><g><path d="M -36.890625 9.078125 C -38.453125 7.441406 -39.632812 5.585938 -40.4375 3.515625 C -41.25 1.441406 -41.632812 -0.707031 -41.59375 -2.9375 C -41.53125 -5.257812 -41.035156 -7.425781 -40.109375 -9.4375 C -39.191406 -11.445312 -37.945312 -13.203125 -36.375 -14.703125 C -34.800781 -16.210938 -32.984375 -17.378906 -30.921875 -18.203125 C -28.867188 -19.035156 -26.6875 -19.429688 -24.375 -19.390625 C -22.144531 -19.335938 -20.007812 -18.863281 -17.96875 -17.96875 C -15.925781 -17.070312 -14.125 -15.804688 -12.5625 -14.171875 C -11.03125 -12.554688 -9.863281 -10.710938 -9.0625 -8.640625 C -8.257812 -6.566406 -7.878906 -4.410156 -7.921875 -2.171875 C -7.972656 0.0546875 -8.453125 2.1875 -9.359375 4.21875 C -10.265625 6.257812 -11.53125 8.054688 -13.15625 9.609375 C -14.757812 11.148438 -16.597656 12.320312 -18.671875 13.125 C -20.742188 13.9375 -22.898438 14.320312 -25.140625 14.28125 C -27.367188 14.21875 -29.5 13.738281 -31.53125 12.84375 C -33.570312 11.945312 -35.359375 10.691406 -36.890625 9.078125 Z M -13.328125 7.390625 C -11.765625 6.117188 -10.550781 4.660156 -9.6875 3.015625 C -8.820312 1.378906 -8.363281 -0.351562 -8.3125 -2.1875 C -8.25 -4 -8.613281 -5.742188 -9.40625 -7.421875 C -10.207031 -9.109375 -11.367188 -10.617188 -12.890625 -11.953125 C -14.429688 -13.296875 -16.195312 -14.332031 -18.1875 -15.0625 C -20.175781 -15.800781 -22.265625 -16.191406 -24.453125 -16.234375 C -26.640625 -16.285156 -28.738281 -15.988281 -30.75 -15.34375 C -32.769531 -14.695312 -34.582031 -13.738281 -36.1875 -12.46875 C -37.769531 -11.21875 -38.992188 -9.769531 -39.859375 -8.125 C -40.734375 -6.476562 -41.175781 -4.75 -41.1875 -2.9375 C -41.269531 0.382812 -40.078125 3.332031 -37.609375 5.90625 C -37.285156 6.25 -36.957031 6.578125 -36.625 6.890625 C -35.101562 8.210938 -33.347656 9.238281 -31.359375 9.96875 C -29.367188 10.707031 -27.265625 11.09375 -25.046875 11.125 C -22.847656 11.195312 -20.738281 10.910156 -18.71875 10.265625 C -16.707031 9.617188 -14.910156 8.660156 -13.328125 7.390625 Z M -13.328125 7.390625 "/></g></g></g><g fill="#ffffff" fill-opacity="1"><g transform="translate(56.289986, 45.594145)"><g><path d="M -49.1875 -22.8125 C -49.207031 -22.875 -49.203125 -22.929688 -49.171875 -22.984375 C -49.140625 -22.992188 -49.097656 -23.015625 -49.046875 -23.046875 L -14.984375 -27.5625 L -14.921875 -27.546875 L -14.78125 -27.578125 C -14.75 -27.585938 -14.734375 -27.59375 -14.734375 -27.59375 C -14.734375 -27.59375 -14.726562 -27.578125 -14.71875 -27.546875 C -14.71875 -27.546875 -14.703125 -27.554688 -14.671875 -27.578125 C -14.671875 -27.578125 -14.660156 -27.5625 -14.640625 -27.53125 C -14.628906 -27.507812 -14.625 -27.5 -14.625 -27.5 L -13.578125 -25.578125 C -13.535156 -25.492188 -13.539062 -25.421875 -13.59375 -25.359375 L -25.734375 -11.328125 L -7.53125 -13.75 L -7.359375 -13.8125 C -7.335938 -13.78125 -7.328125 -13.765625 -7.328125 -13.765625 C -7.296875 -13.773438 -7.28125 -13.78125 -7.28125 -13.78125 C -7.28125 -13.78125 -7.273438 -13.769531 -7.265625 -13.75 C -7.234375 -13.769531 -7.21875 -13.78125 -7.21875 -13.78125 C -7.21875 -13.78125 -7.207031 -13.765625 -7.1875 -13.734375 C -7.175781 -13.703125 -7.171875 -13.6875 -7.171875 -13.6875 L -6.125 -11.765625 C -6.09375 -11.691406 -6.097656 -11.625 -6.140625 -11.5625 L -28.734375 14.5625 C -28.785156 14.59375 -28.847656 14.613281 -28.921875 14.625 C -28.984375 14.625 -29.03125 14.597656 -29.0625 14.546875 L -30.171875 12.5 C -30.203125 12.4375 -30.1875 12.367188 -30.125 12.296875 L -7.984375 -13.3125 L -26.09375 -10.90625 L -36.1875 0.765625 C -36.226562 0.828125 -36.289062 0.84375 -36.375 0.8125 C -36.4375 0.820312 -36.484375 0.796875 -36.515625 0.734375 L -37.625 -1.3125 C -37.644531 -1.363281 -37.628906 -1.429688 -37.578125 -1.515625 L -29.875 -10.40625 L -41.546875 -8.859375 C -41.671875 -8.847656 -41.734375 -8.898438 -41.734375 -9.015625 C -41.753906 -9.128906 -41.707031 -9.207031 -41.59375 -9.25 L -29.546875 -10.84375 L -15.4375 -27.109375 L -48.984375 -22.65625 C -49.117188 -22.644531 -49.1875 -22.695312 -49.1875 -22.8125 Z M -49.1875 -22.8125 "/></g></g></g></g></g><g transform="matrix(1, 0, 0, 1, 243, 249)"><g clip-path="url(#e6408ac90a)"><g fill="#ffffff" fill-opacity="1"><g transform="translate(31.468409, 125.380253)"><g><path d="M -24.796875 -21.375 L -24.4375 -21.171875 C -24.5 -21.066406 -24.414062 -20.789062 -24.1875 -20.34375 C -23.96875 -19.894531 -23.191406 -19.304688 -21.859375 -18.578125 L 2.40625 -5.21875 L 4.890625 -9.734375 C 5.773438 -11.847656 6.304688 -13.6875 6.484375 -15.25 C 6.671875 -16.820312 6.726562 -18.429688 6.65625 -20.078125 L 6.84375 -20.4375 L 10.265625 -18.5625 L 8.375 -15.125 L 7.765625 -14.09375 L 0.65625 -1.203125 L 0.296875 -1.40625 C 0.367188 -1.53125 0.285156 -1.816406 0.046875 -2.265625 C -0.191406 -2.710938 -0.96875 -3.300781 -2.28125 -4.03125 L -23.453125 -15.6875 C -24.785156 -16.414062 -25.695312 -16.753906 -26.1875 -16.703125 C -26.6875 -16.660156 -26.972656 -16.578125 -27.046875 -16.453125 L -27.40625 -16.65625 Z M -24.796875 -21.375 "/></g></g></g><g fill="#ffffff" fill-opacity="1"><g transform="translate(40.865865, 106.897471)"><g><path d="M -7.9375 -9.078125 C -9.96875 -9.992188 -11.703125 -11.242188 -13.140625 -12.828125 C -14.585938 -14.421875 -15.675781 -16.195312 -16.40625 -18.15625 C -17.132812 -20.125 -17.476562 -22.171875 -17.4375 -24.296875 C -17.40625 -26.421875 -16.925781 -28.507812 -16 -30.5625 C -15.09375 -32.550781 -13.882812 -34.25 -12.375 -35.65625 C -10.875 -37.0625 -9.1875 -38.144531 -7.3125 -38.90625 C -5.445312 -39.675781 -3.492188 -40.066406 -1.453125 -40.078125 L 0.953125 -36.6875 L 0.6875 -36.359375 C -0.863281 -36.734375 -2.441406 -36.910156 -4.046875 -36.890625 C -5.660156 -36.878906 -7.21875 -36.660156 -8.71875 -36.234375 C -10.21875 -35.804688 -11.566406 -35.113281 -12.765625 -34.15625 C -13.960938 -33.195312 -14.921875 -31.941406 -15.640625 -30.390625 C -16.484375 -28.554688 -16.796875 -26.703125 -16.578125 -24.828125 C -16.367188 -22.960938 -15.78125 -21.203125 -14.8125 -19.546875 C -13.84375 -17.890625 -12.632812 -16.429688 -11.1875 -15.171875 L -10.59375 -15.875 C -9.4375 -17.28125 -8.34375 -18.738281 -7.3125 -20.25 C -6.289062 -21.769531 -5.40625 -23.175781 -4.65625 -24.46875 C -3.90625 -25.769531 -3.304688 -26.816406 -2.859375 -27.609375 C -2.421875 -28.410156 -2.203125 -28.8125 -2.203125 -28.8125 L -1.953125 -29.125 L 1.03125 -26.65625 L 0.78125 -26.34375 C 0.78125 -26.34375 0.429688 -26.050781 -0.265625 -25.46875 C -0.960938 -24.882812 -1.875 -24.097656 -3 -23.109375 C -4.132812 -22.128906 -5.34375 -20.988281 -6.625 -19.6875 C -7.90625 -18.382812 -9.125 -17.03125 -10.28125 -15.625 L -10.890625 -14.890625 C -10.234375 -14.347656 -9.535156 -13.84375 -8.796875 -13.375 C -8.054688 -12.90625 -7.300781 -12.484375 -6.53125 -12.109375 C -4.101562 -11.035156 -1.785156 -10.503906 0.421875 -10.515625 C 2.640625 -10.523438 4.675781 -10.957031 6.53125 -11.8125 C 8.394531 -12.675781 9.972656 -13.84375 11.265625 -15.3125 C 12.566406 -16.78125 13.492188 -18.425781 14.046875 -20.25 C 14.609375 -22.082031 14.710938 -23.96875 14.359375 -25.90625 C 14.003906 -27.84375 13.101562 -29.707031 11.65625 -31.5 L 11.96875 -31.75 C 13.351562 -30.0625 14.265625 -28.296875 14.703125 -26.453125 C 15.140625 -24.617188 15.1875 -22.785156 14.84375 -20.953125 C 14.5 -19.117188 13.84375 -17.382812 12.875 -15.75 C 11.914062 -14.125 10.695312 -12.6875 9.21875 -11.4375 C 7.738281 -10.195312 6.078125 -9.226562 4.234375 -8.53125 C 2.398438 -7.832031 0.453125 -7.5 -1.609375 -7.53125 C -3.671875 -7.570312 -5.78125 -8.085938 -7.9375 -9.078125 Z M -7.9375 -9.078125 "/></g></g></g><g fill="#ffffff" fill-opacity="1"><g transform="translate(60.828427, 82.679121)"><g><path d="M 1.3125 -42.1875 L 3.734375 -39.171875 L 3.40625 -38.90625 C 2.113281 -39.101562 0.957031 -39.117188 -0.0625 -38.953125 C -1.082031 -38.785156 -2.140625 -38.367188 -3.234375 -37.703125 C -4.335938 -37.035156 -5.707031 -36.039062 -7.34375 -34.71875 L 10.015625 -13.09375 C 10.953125 -11.914062 11.664062 -11.25 12.15625 -11.09375 C 12.644531 -10.9375 12.941406 -10.898438 13.046875 -10.984375 L 13.296875 -10.671875 L 9.125 -7.328125 L 8.875 -7.640625 C 8.988281 -7.734375 9.015625 -8.03125 8.953125 -8.53125 C 8.898438 -9.039062 8.40625 -9.882812 7.46875 -11.0625 L -9.890625 -32.6875 C -11.503906 -31.382812 -12.757812 -30.265625 -13.65625 -29.328125 C -14.5625 -28.390625 -15.203125 -27.445312 -15.578125 -26.5 C -15.953125 -25.550781 -16.179688 -24.421875 -16.265625 -23.109375 L -16.578125 -22.859375 L -19 -25.875 Z M 1.3125 -42.1875 "/></g></g></g><g fill="#ffffff" fill-opacity="1"><g transform="translate(82.639852, 65.899091)"><g><path d="M -14.0625 -28.9375 C -13.570312 -29.25 -13.054688 -29.335938 -12.515625 -29.203125 C -11.984375 -29.066406 -11.570312 -28.769531 -11.28125 -28.3125 C -10.769531 -27.476562 -10.5625 -26.632812 -10.65625 -25.78125 C -10.75 -24.9375 -11.1875 -24.273438 -11.96875 -23.796875 L -12.1875 -24.140625 C -11.71875 -24.429688 -11.457031 -24.707031 -11.40625 -24.96875 C -11.351562 -25.226562 -11.375 -25.4375 -11.46875 -25.59375 C -11.5625 -25.75 -11.609375 -25.828125 -11.609375 -25.828125 C -11.660156 -25.765625 -11.773438 -25.675781 -11.953125 -25.5625 C -12.410156 -25.28125 -12.910156 -25.191406 -13.453125 -25.296875 C -14.003906 -25.398438 -14.425781 -25.6875 -14.71875 -26.15625 C -15.007812 -26.613281 -15.085938 -27.117188 -14.953125 -27.671875 C -14.816406 -28.234375 -14.519531 -28.65625 -14.0625 -28.9375 Z M -14.0625 -28.9375 "/></g></g></g><g fill="#ffffff" fill-opacity="1"><g transform="translate(87.201864, 62.407277)"><g><path d="M 13.21875 -6.03125 C 11.351562 -5.125 9.457031 -4.632812 7.53125 -4.5625 C 5.601562 -4.488281 3.816406 -4.675781 2.171875 -5.125 C 0.523438 -5.570312 -0.796875 -6.132812 -1.796875 -6.8125 L -2.59375 -10.9375 L -2.265625 -11.09375 C -2.265625 -11.09375 -1.9375 -10.84375 -1.28125 -10.34375 C -0.625 -9.851562 0.242188 -9.265625 1.328125 -8.578125 C 2.421875 -7.898438 3.640625 -7.273438 4.984375 -6.703125 C 6.335938 -6.128906 7.707031 -5.773438 9.09375 -5.640625 C 10.488281 -5.515625 11.8125 -5.753906 13.0625 -6.359375 C 13.53125 -6.585938 14.082031 -6.957031 14.71875 -7.46875 C 15.351562 -7.976562 15.941406 -8.613281 16.484375 -9.375 C 17.023438 -10.132812 17.378906 -10.96875 17.546875 -11.875 C 17.710938 -12.78125 17.550781 -13.734375 17.0625 -14.734375 C 16.414062 -16.066406 15.441406 -17.039062 14.140625 -17.65625 C 12.835938 -18.28125 11.394531 -18.660156 9.8125 -18.796875 C 8.238281 -18.941406 6.710938 -18.9375 5.234375 -18.78125 C 3.566406 -18.601562 1.925781 -18.585938 0.3125 -18.734375 C -1.300781 -18.890625 -2.769531 -19.328125 -4.09375 -20.046875 C -5.414062 -20.765625 -6.453125 -21.890625 -7.203125 -23.421875 C -7.941406 -24.929688 -8.203125 -26.425781 -7.984375 -27.90625 C -7.765625 -29.382812 -7.175781 -30.738281 -6.21875 -31.96875 C -5.257812 -33.207031 -4.039062 -34.1875 -2.5625 -34.90625 C -0.695312 -35.8125 0.960938 -36.3125 2.421875 -36.40625 C 3.878906 -36.507812 5.203125 -36.351562 6.390625 -35.9375 C 7.578125 -35.519531 8.664062 -34.953125 9.65625 -34.234375 L 10.421875 -30.140625 L 10.0625 -29.96875 C 10.0625 -29.96875 9.828125 -30.210938 9.359375 -30.703125 C 8.898438 -31.191406 8.269531 -31.769531 7.46875 -32.4375 C 6.675781 -33.113281 5.75 -33.722656 4.6875 -34.265625 C 3.625 -34.804688 2.492188 -35.140625 1.296875 -35.265625 C 0.0976562 -35.390625 -1.125 -35.144531 -2.375 -34.53125 C -2.8125 -34.3125 -3.359375 -33.9375 -4.015625 -33.40625 C -4.679688 -32.882812 -5.28125 -32.25 -5.8125 -31.5 C -6.351562 -30.75 -6.710938 -29.914062 -6.890625 -29 C -7.066406 -28.082031 -6.914062 -27.132812 -6.4375 -26.15625 C -5.789062 -24.832031 -4.8125 -23.851562 -3.5 -23.21875 C -2.195312 -22.582031 -0.757812 -22.207031 0.8125 -22.09375 C 2.394531 -21.988281 3.929688 -22.015625 5.421875 -22.171875 C 7.078125 -22.367188 8.710938 -22.382812 10.328125 -22.21875 C 11.953125 -22.0625 13.421875 -21.625 14.734375 -20.90625 C 16.054688 -20.195312 17.097656 -19.0625 17.859375 -17.5 C 18.597656 -15.988281 18.851562 -14.488281 18.625 -13 C 18.394531 -11.519531 17.804688 -10.171875 16.859375 -8.953125 C 15.910156 -7.734375 14.695312 -6.757812 13.21875 -6.03125 Z M 13.21875 -6.03125 "/></g></g></g><g fill="#ffffff" fill-opacity="1"><g transform="translate(108.78626, 52.293003)"><g/></g></g><g fill="#ffffff" fill-opacity="1"><g transform="translate(116.936952, 48.712534)"><g><path d="M 20.203125 -37.0625 L 21 -33.265625 L 20.609375 -33.171875 C 19.546875 -33.941406 18.519531 -34.476562 17.53125 -34.78125 C 16.539062 -35.09375 15.40625 -35.195312 14.125 -35.09375 C 12.84375 -34.988281 11.171875 -34.722656 9.109375 -34.296875 L 14.84375 -7.171875 C 15.15625 -5.703125 15.492188 -4.785156 15.859375 -4.421875 C 16.234375 -4.054688 16.476562 -3.882812 16.59375 -3.90625 L 16.671875 -3.515625 L 11.453125 -2.421875 L 11.375 -2.8125 C 11.519531 -2.84375 11.679688 -3.097656 11.859375 -3.578125 C 12.035156 -4.054688 11.96875 -5.03125 11.65625 -6.5 L 5.921875 -33.625 C 3.898438 -33.1875 2.273438 -32.753906 1.046875 -32.328125 C -0.179688 -31.898438 -1.175781 -31.347656 -1.9375 -30.671875 C -2.695312 -29.992188 -3.410156 -29.09375 -4.078125 -27.96875 L -4.484375 -27.875 L -5.28125 -31.671875 Z M 20.203125 -37.0625 "/></g></g></g><g fill="#ffffff" fill-opacity="1"><g transform="translate(143.169798, 42.990391)"><g><path d="M 21.296875 -5.28125 L 20.921875 -6.375 C 20.441406 -7.707031 19.769531 -8.972656 18.90625 -10.171875 C 18.039062 -11.378906 17.007812 -12.382812 15.8125 -13.1875 C 14.613281 -13.988281 13.257812 -14.445312 11.75 -14.5625 C 10.925781 -14.613281 10.046875 -14.492188 9.109375 -14.203125 C 8.171875 -13.910156 7.546875 -13.320312 7.234375 -12.4375 L 5.09375 -5.71875 C 3.945312 -2.21875 4 -0.476562 5.25 -0.5 L 5.25 -0.09375 L 1.375 -0.03125 L 1.375 -0.4375 C 1.707031 -0.4375 2.175781 -0.820312 2.78125 -1.59375 C 3.394531 -2.375 4.03125 -3.796875 4.6875 -5.859375 L 12.390625 -29.796875 L 11.484375 -32.296875 L 14.96875 -32.359375 L 24.140625 -7.0625 C 24.785156 -5.363281 25.382812 -3.910156 25.9375 -2.703125 C 26.5 -1.492188 26.945312 -0.894531 27.28125 -0.90625 L 27.28125 -0.5 L 21.9375 -0.40625 L 21.9375 -0.8125 C 22.09375 -0.8125 22.140625 -1.238281 22.078125 -2.09375 C 22.015625 -2.945312 21.753906 -4.007812 21.296875 -5.28125 Z M 12.625 -29.171875 L 7.703125 -13.8125 C 8.210938 -14.300781 8.847656 -14.625 9.609375 -14.78125 C 10.367188 -14.9375 11.082031 -14.988281 11.75 -14.9375 C 13.457031 -14.8125 14.988281 -14.257812 16.34375 -13.28125 C 17.707031 -12.300781 18.828125 -11.117188 19.703125 -9.734375 Z M 12.625 -29.171875 "/></g></g></g><g fill="#ffffff" fill-opacity="1"><g transform="translate(170.050305, 42.60654)"><g><path d="M 11.5 -30.65625 L 11.4375 -30.25 C 11.3125 -30.269531 11.078125 -30.097656 10.734375 -29.734375 C 10.398438 -29.367188 10.117188 -28.4375 9.890625 -26.9375 L 5.71875 0.453125 L 10.8125 1.234375 C 13.125 1.335938 15.039062 1.203125 16.5625 0.828125 C 18.09375 0.460938 19.617188 -0.0351562 21.140625 -0.671875 L 21.546875 -0.609375 L 20.96875 3.234375 L 17.078125 2.640625 L 15.90625 2.421875 L 1.359375 0.203125 L 1.421875 -0.203125 C 1.566406 -0.179688 1.804688 -0.359375 2.140625 -0.734375 C 2.472656 -1.117188 2.753906 -2.050781 2.984375 -3.53125 L 6.625 -27.4375 C 6.851562 -28.9375 6.859375 -29.910156 6.640625 -30.359375 C 6.429688 -30.804688 6.253906 -31.039062 6.109375 -31.0625 L 6.171875 -31.46875 Z M 11.5 -30.65625 "/></g></g></g><g fill="#ffffff" fill-opacity="1"><g transform="translate(190.736025, 45.383475)"><g><path d="M 19.3125 -16.265625 L 22.96875 2.3125 C 23.363281 4.207031 23.726562 5.570312 24.0625 6.40625 C 24.394531 7.238281 24.691406 7.695312 24.953125 7.78125 L 24.828125 8.171875 L 19.40625 6.375 L 19.53125 5.984375 C 19.757812 6.066406 19.910156 5.867188 19.984375 5.390625 C 20.066406 4.921875 19.925781 3.8125 19.5625 2.0625 L 16.234375 -14.71875 L 9.75 -11.46875 L 6.625 -1.96875 C 6.15625 -0.550781 5.988281 0.40625 6.125 0.90625 C 6.257812 1.40625 6.398438 1.675781 6.546875 1.71875 L 6.421875 2.109375 L 1.3125 0.4375 L 1.4375 0.046875 C 1.570312 0.0859375 1.835938 -0.0507812 2.234375 -0.375 C 2.628906 -0.695312 3.0625 -1.566406 3.53125 -2.984375 L 11.09375 -26 C 11.570312 -27.4375 11.742188 -28.390625 11.609375 -28.859375 C 11.472656 -29.335938 11.335938 -29.597656 11.203125 -29.640625 L 11.34375 -30.03125 L 16.453125 -28.359375 L 16.3125 -27.96875 C 16.164062 -28.007812 15.894531 -27.878906 15.5 -27.578125 C 15.101562 -27.285156 14.664062 -26.421875 14.1875 -24.984375 L 9.921875 -12 L 25.46875 -19.8125 C 27.40625 -20.8125 28.671875 -21.660156 29.265625 -22.359375 C 29.867188 -23.054688 29.5 -23.625 28.15625 -24.0625 L 28.296875 -24.453125 L 35.25 -22.171875 L 35.109375 -21.78125 C 34.328125 -22.039062 33.363281 -22.0625 32.21875 -21.84375 C 31.082031 -21.632812 29.921875 -21.296875 28.734375 -20.828125 C 27.554688 -20.367188 26.488281 -19.894531 25.53125 -19.40625 Z M 19.3125 -16.265625 "/></g></g></g><g fill="#ffffff" fill-opacity="1"><g transform="translate(215.821253, 54.133619)"><g/></g></g><g fill="#ffffff" fill-opacity="1"><g transform="translate(224.123553, 57.119684)"><g><path d="M 36.296875 -5.546875 L 25.21875 11.234375 L 25.703125 16.96875 L 22.234375 14.6875 L 19.28125 -20.5 L 8.140625 -3.625 C 6.960938 -1.832031 6.1875 -0.285156 5.8125 1.015625 C 5.4375 2.328125 5.390625 3.070312 5.671875 3.25 L 5.453125 3.59375 L 2.21875 1.46875 L 2.4375 1.125 C 2.71875 1.300781 3.382812 0.960938 4.4375 0.109375 C 5.5 -0.734375 6.617188 -2.050781 7.796875 -3.84375 L 19.234375 -21.15625 L 18.828125 -26 L 22.296875 -23.71875 L 25.15625 10.578125 L 35.96875 -5.78125 C 37.144531 -7.550781 37.910156 -9.082031 38.265625 -10.375 C 38.628906 -11.664062 38.671875 -12.40625 38.390625 -12.59375 L 38.625 -12.9375 L 41.859375 -10.796875 L 41.625 -10.453125 C 41.34375 -10.640625 40.675781 -10.3125 39.625 -9.46875 C 38.582031 -8.625 37.472656 -7.316406 36.296875 -5.546875 Z M 36.296875 -5.546875 "/></g></g></g><g fill="#ffffff" fill-opacity="1"><g transform="translate(249.351004, 73.279219)"><g><path d="M 9.90625 -6.84375 C 11.0625 -8.757812 12.507812 -10.335938 14.25 -11.578125 C 16 -12.828125 17.894531 -13.703125 19.9375 -14.203125 C 21.988281 -14.703125 24.0625 -14.800781 26.15625 -14.5 C 28.257812 -14.207031 30.273438 -13.476562 32.203125 -12.3125 C 34.109375 -11.144531 35.679688 -9.691406 36.921875 -7.953125 C 38.171875 -6.222656 39.050781 -4.332031 39.5625 -2.28125 C 40.070312 -0.238281 40.171875 1.832031 39.859375 3.9375 C 39.554688 6.050781 38.828125 8.0625 37.671875 9.96875 C 36.515625 11.882812 35.066406 13.460938 33.328125 14.703125 C 31.597656 15.941406 29.710938 16.8125 27.671875 17.3125 C 25.628906 17.820312 23.546875 17.925781 21.421875 17.625 C 19.304688 17.332031 17.289062 16.609375 15.375 15.453125 C 13.46875 14.296875 11.894531 12.851562 10.65625 11.125 C 9.425781 9.394531 8.554688 7.503906 8.046875 5.453125 C 7.546875 3.410156 7.4375 1.328125 7.71875 -0.796875 C 8.007812 -2.921875 8.738281 -4.9375 9.90625 -6.84375 Z M 34.796875 8.234375 C 35.785156 6.660156 36.515625 4.925781 36.984375 3.03125 C 37.453125 1.144531 37.613281 -0.75 37.46875 -2.65625 C 37.320312 -4.570312 36.8125 -6.332031 35.9375 -7.9375 C 35.070312 -9.550781 33.765625 -10.890625 32.015625 -11.953125 C 30.285156 -13.023438 28.488281 -13.570312 26.625 -13.59375 C 24.769531 -13.613281 22.96875 -13.25 21.21875 -12.5 C 19.46875 -11.75 17.867188 -10.71875 16.421875 -9.40625 C 14.984375 -8.101562 13.769531 -6.664062 12.78125 -5.09375 C 11.832031 -3.519531 11.125 -1.789062 10.65625 0.09375 C 10.195312 1.976562 10.03125 3.867188 10.15625 5.765625 C 10.289062 7.671875 10.796875 9.445312 11.671875 11.09375 C 12.554688 12.738281 13.867188 14.070312 15.609375 15.09375 C 17.359375 16.175781 19.15625 16.71875 21 16.71875 C 22.84375 16.71875 24.640625 16.34375 26.390625 15.59375 C 28.140625 14.851562 29.742188 13.832031 31.203125 12.53125 C 32.671875 11.238281 33.867188 9.804688 34.796875 8.234375 Z M 34.796875 8.234375 "/></g></g></g><g fill="#ffffff" fill-opacity="1"><g transform="translate(272.81362, 96.099182)"><g><path d="M 47.625 21.75 L 47.984375 21.5625 L 49.828125 24.96875 L 49.46875 25.15625 C 49.300781 24.863281 48.742188 24.617188 47.796875 24.421875 C 46.847656 24.222656 45.296875 24.304688 43.140625 24.671875 L 18.296875 28.765625 L 16.484375 30.6875 L 14.84375 27.65625 L 32.1875 8.96875 L 9.65625 12.65625 L 7.84375 14.625 L 6.203125 11.546875 L 24.484375 -8.109375 C 25.742188 -9.441406 26.773438 -10.644531 27.578125 -11.71875 C 28.390625 -12.789062 28.71875 -13.472656 28.5625 -13.765625 L 28.921875 -13.953125 L 31.4375 -9.25 L 31.078125 -9.0625 C 31.003906 -9.195312 30.597656 -9.03125 29.859375 -8.5625 C 29.128906 -8.101562 28.304688 -7.398438 27.390625 -6.453125 L 10.109375 12.15625 L 32.640625 8.453125 L 33.109375 7.953125 C 34.367188 6.617188 35.40625 5.421875 36.21875 4.359375 C 37.03125 3.304688 37.359375 2.628906 37.203125 2.328125 L 37.5625 2.140625 L 40.09375 6.859375 L 39.734375 7.046875 C 39.660156 6.898438 39.253906 7.0625 38.515625 7.53125 C 37.785156 8 36.957031 8.703125 36.03125 9.640625 L 18.765625 28.265625 L 43.0625 24.25 C 46.6875 23.65625 48.207031 22.820312 47.625 21.75 Z M 47.625 21.75 "/></g></g></g></g></g><g fill="#ffffff" fill-opacity="1"><g transform="translate(256.420097, 434.172303)"><g><path d="M 14.4375 -12.9375 C 14.4375 -11.789062 14.15625 -10.757812 13.59375 -9.84375 C 13.039062 -8.9375 12.300781 -8.234375 11.375 -7.734375 C 10.445312 -7.242188 9.457031 -7 8.40625 -7 C 7.320312 -7 6.316406 -7.242188 5.390625 -7.734375 C 4.460938 -8.234375 3.71875 -8.9375 3.15625 -9.84375 C 2.601562 -10.757812 2.328125 -11.789062 2.328125 -12.9375 C 2.328125 -14.113281 2.601562 -15.144531 3.15625 -16.03125 C 3.71875 -16.925781 4.460938 -17.625 5.390625 -18.125 C 6.316406 -18.625 7.320312 -18.875 8.40625 -18.875 C 9.457031 -18.875 10.445312 -18.625 11.375 -18.125 C 12.300781 -17.625 13.039062 -16.925781 13.59375 -16.03125 C 14.15625 -15.144531 14.4375 -14.113281 14.4375 -12.9375 Z M 14.4375 -12.9375 "/></g></g></g><g fill="#ffffff" fill-opacity="1"><g transform="translate(538.142448, 432.558543)"><g><path d="M 14.4375 -12.9375 C 14.4375 -11.789062 14.15625 -10.757812 13.59375 -9.84375 C 13.039062 -8.9375 12.300781 -8.234375 11.375 -7.734375 C 10.445312 -7.242188 9.457031 -7 8.40625 -7 C 7.320312 -7 6.316406 -7.242188 5.390625 -7.734375 C 4.460938 -8.234375 3.71875 -8.9375 3.15625 -9.84375 C 2.601562 -10.757812 2.328125 -11.789062 2.328125 -12.9375 C 2.328125 -14.113281 2.601562 -15.144531 3.15625 -16.03125 C 3.71875 -16.925781 4.460938 -17.625 5.390625 -18.125 C 6.316406 -18.625 7.320312 -18.875 8.40625 -18.875 C 9.457031 -18.875 10.445312 -18.625 11.375 -18.125 C 12.300781 -17.625 13.039062 -16.925781 13.59375 -16.03125 C 14.15625 -15.144531 14.4375 -14.113281 14.4375 -12.9375 Z M 14.4375 -12.9375 "/></g></g></g></svg>