<?xml version="1.0" standalone="no"?>
<!DOCTYPE svg PUBLIC "-//W3C//DTD SVG 20010904//EN"
 "http://www.w3.org/TR/2001/REC-SVG-20010904/DTD/svg10.dtd">
<svg version="1.0" xmlns="http://www.w3.org/2000/svg"
 width="1080.000000pt" height="1080.000000pt" viewBox="0 0 1080.000000 1080.000000"
 preserveAspectRatio="xMidYMid meet">
<metadata>
Created by potrace 1.16, written by Peter Selinger 2001-2019
</metadata>
<g transform="translate(0.000000,1080.000000) scale(0.100000,-0.100000)"
fill="#000000" stroke="none">
<path d="M0 5400 l0 -5400 5400 0 5400 0 0 5400 0 5400 -5400 0 -5400 0 0
-5400z m5670 2435 c500 -58 951 -241 1340 -544 120 -93 317 -287 421 -413 312
-382 510 -839 574 -1331 20 -155 20 -524 0 -674 -111 -845 -602 -1566 -1350
-1982 -257 -143 -520 -234 -845 -293 -112 -21 -156 -23 -425 -23 -241 0 -321
4 -405 18 -591 100 -1089 359 -1495 778 -171 176 -279 320 -403 536 -240 420
-354 883 -339 1377 8 274 48 505 128 749 263 793 884 1418 1674 1682 173 58
366 100 570 124 117 14 421 12 555 -4z"/>
<path d="M5275 7773 c-270 -10 -582 -76 -824 -172 -346 -138 -618 -317 -882
-581 -364 -363 -603 -806 -704 -1305 -47 -232 -60 -589 -31 -826 163 -1305
1300 -2283 2611 -2246 398 11 718 90 1070 262 711 347 1228 1017 1385 1792 71
356 64 762 -20 1113 -108 451 -350 880 -680 1211 -511 510 -1205 781 -1925
752z m437 -129 c536 -74 1010 -308 1395 -689 205 -203 341 -386 462 -623 184
-362 271 -723 271 -1129 0 -388 -84 -743 -260 -1095 -286 -573 -792 -1017
-1395 -1225 -290 -100 -559 -140 -875 -130 -264 8 -465 43 -707 123 -769 253
-1386 908 -1593 1689 -161 609 -93 1232 197 1785 433 827 1306 1340 2235 1314
87 -2 208 -11 270 -20z"/>
<path d="M5130 7579 c-536 -65 -1007 -284 -1388 -644 -325 -308 -561 -712
-672 -1154 -51 -205 -65 -323 -65 -571 0 -249 13 -359 66 -580 209 -858 908
-1544 1778 -1746 281 -65 635 -76 917 -29 700 117 1306 531 1667 1139 358 603
431 1331 200 2000 -47 138 -177 399 -261 526 -376 564 -965 941 -1632 1045
-123 20 -498 28 -610 14z m286 -431 c34 -97 70 -191 79 -207 20 -40 20 -41
-17 -41 -29 0 -33 3 -35 30 -3 36 -27 85 -62 125 l-26 30 28 -25 28 -25 -32
85 c-17 47 -36 100 -42 118 -6 17 -14 32 -19 32 -4 0 -8 14 -8 31 0 25 4 30
21 27 17 -2 32 -33 85 -180z m222 166 c15 -4 19 -10 14 -18 -8 -9 -60 -319
-65 -384 -1 -22 -13 -27 -40 -16 -12 4 -13 12 -7 32 15 45 62 371 55 382 -7
11 9 13 43 4z m-690 -31 c-10 -2 -18 -12 -18 -21 1 -15 71 -346 81 -381 2 -8
-7 -17 -23 -22 -25 -6 -28 -5 -28 17 0 19 -51 277 -75 381 -4 18 0 22 22 26
39 6 62 6 41 0z m1038 -36 c1 -1 -27 -87 -62 -192 -35 -104 -62 -196 -59 -202
5 -16 -5 -16 -40 -3 -24 9 -25 11 -11 32 16 27 116 327 119 358 1 17 6 20 27
15 14 -4 26 -7 26 -8z m-1639 -175 c-30 -31 -34 -67 -12 -99 18 -26 102 -48
149 -39 49 9 115 -8 145 -39 36 -36 37 -104 1 -137 -22 -21 -23 -21 -6 -1 28
34 18 83 -23 110 -29 20 -47 23 -123 23 -61 0 -98 5 -119 16 -36 18 -63 75
-54 113 6 23 51 81 64 81 2 0 -7 -13 -22 -28z m2177 -94 c3 -29 10 -116 16
-193 14 -182 18 -207 33 -198 9 5 9 3 0 -8 -6 -8 -13 -31 -15 -52 -3 -35 -5
-37 -21 -25 -15 11 -21 48 -37 238 -11 124 -19 226 -20 228 0 2 -6 0 -12 -4
-10 -6 -10 -4 0 7 6 7 12 28 12 46 0 30 2 33 19 24 13 -7 20 -26 25 -63z
m-2453 -89 c-40 -5 -91 -34 -98 -55 -4 -11 215 -289 245 -312 16 -12 15 -15
-8 -32 -24 -18 -24 -18 -43 12 -22 37 -214 278 -234 294 -11 10 1 23 63 73 75
59 78 61 97 44 19 -18 18 -18 -22 -24z m1679 -159 c597 -126 1052 -582 1182
-1183 32 -149 32 -457 0 -603 -65 -300 -200 -551 -406 -759 -299 -302 -663
-455 -1081 -455 -148 0 -246 12 -380 47 -267 70 -492 199 -690 398 -213 212
-352 469 -417 768 -18 85 -22 135 -23 297 0 168 3 210 23 304 140 652 662
1130 1322 1210 19 2 109 3 200 1 123 -2 192 -8 270 -25z m1192 -50 c21 -6 40
-15 42 -19 3 -5 -11 -3 -32 5 -99 33 -222 -53 -252 -175 -15 -63 -8 -107 26
-157 l26 -39 -27 25 c-64 58 -83 166 -44 247 47 98 152 143 261 113z m138
-145 c37 -133 -53 -263 -188 -273 -39 -3 -69 1 -92 12 -19 9 -24 13 -10 8 104
-30 221 46 256 166 19 64 12 117 -22 169 l-24 38 34 -38 c18 -20 39 -58 46
-82z m-3490 -203 c20 -53 82 -108 143 -128 100 -31 193 4 237 91 11 22 20 34
20 27 0 -22 -37 -86 -67 -114 -31 -29 -100 -58 -141 -58 -87 0 -182 70 -207
153 -17 56 -21 119 -5 82 4 -11 14 -35 20 -53z m3628 -72 c-35 -36 -105 -109
-155 -163 -84 -91 -92 -97 -102 -79 -10 19 5 38 128 170 76 82 145 160 152
173 l12 23 14 -29 c14 -30 14 -31 -49 -95z m182 -152 c0 -5 -4 -8 -9 -8 -4 0
-66 -61 -136 -136 -99 -105 -125 -138 -114 -145 11 -7 10 -9 -6 -9 -12 0 -27
-6 -33 -12 -10 -10 -15 -10 -22 2 -5 8 -10 18 -10 23 0 4 49 60 109 124 72 78
106 120 98 125 -8 5 -4 8 10 8 14 0 32 14 50 40 l28 39 17 -22 c10 -12 18 -25
18 -29z m-4022 -52 c57 -37 313 -176 323 -176 6 0 4 -10 -2 -22 -17 -33 -17
-33 -36 -16 -23 19 -301 173 -330 182 -19 6 -21 10 -11 32 6 13 13 24 15 24 2
0 20 -11 41 -24z m3956 -807 c43 -33 35 -99 -15 -125 -36 -18 -73 -10 -99 23
-27 35 -25 69 6 98 33 30 73 32 108 4z m-3760 -20 c42 -33 35 -99 -15 -124
-40 -21 -57 -19 -90 14 -37 37 -38 74 -3 106 33 30 73 32 108 4z m154 -581 c3
-16 -292 -360 -302 -351 -3 4 -6 11 -6 18 0 11 62 90 118 150 116 124 165 187
151 196 -10 6 -7 8 11 6 14 -2 26 -11 28 -19z m102 -183 c0 -21 -291 -355
-302 -348 -5 2 -8 11 -6 19 4 18 287 344 299 344 5 0 9 -7 9 -15z m175 -255
c22 -10 47 -25 56 -32 24 -20 69 -89 69 -106 0 -8 -10 0 -23 19 -69 103 -221
130 -330 58 -24 -16 -52 -44 -61 -62 -8 -17 -16 -25 -16 -16 0 8 14 36 31 62
57 87 181 122 274 77z m271 -439 c-3 -108 -6 -225 -6 -260 0 -55 -2 -62 -15
-51 -13 10 -15 51 -15 247 0 227 7 283 31 267 7 -4 9 -72 5 -203z m-508 107
c44 -37 94 -51 167 -46 76 5 148 45 176 98 11 19 19 28 19 19 0 -27 -54 -98
-96 -127 -57 -39 -160 -43 -224 -10 -46 24 -110 104 -110 137 0 10 7 4 19 -14
10 -17 32 -43 49 -57z m2517 -93 c-41 -42 -48 -91 -15 -120 18 -16 37 -18 159
-16 149 2 181 -5 200 -46 16 -35 14 -51 -14 -100 -32 -54 -42 -57 -14 -3 24
45 19 73 -17 97 -21 14 -44 15 -148 9 -142 -7 -179 1 -202 46 -14 28 -14 34 1
74 9 24 30 55 46 69 44 36 46 31 4 -10z m-386 -353 c27 -121 50 -202 59 -209
14 -12 14 -13 0 -13 -9 0 -23 -3 -32 -6 -11 -4 -16 0 -16 14 0 11 -20 107 -45
213 -25 106 -45 195 -45 196 0 2 8 3 18 3 14 0 24 -33 61 -198z m-533 102 c9
-25 27 -57 38 -72 11 -14 15 -23 9 -19 -7 5 1 -23 17 -60 15 -37 44 -105 64
-150 32 -75 33 -83 17 -83 -19 0 -23 6 -157 328 -39 91 -41 102 -24 102 13 0
24 -14 36 -46z"/>
<path d="M5205 6669 c-594 -104 -1045 -539 -1176 -1132 -32 -146 -37 -371 -10
-526 120 -706 718 -1211 1430 -1211 795 0 1441 648 1441 1445 0 583 -352 1109
-893 1335 -245 102 -533 135 -792 89z m875 -650 c108 -41 202 -100 213 -133 8
-23 2 -38 -42 -105 -66 -100 -86 -121 -116 -121 -14 0 -25 2 -25 5 0 2 25 40
56 82 68 95 77 116 63 146 -18 40 -159 115 -289 153 l-45 14 54 -6 c30 -3 89
-18 131 -35z m-610 18 c-14 -6 -81 -14 -150 -17 l-125 -5 0 -30 0 -30 122 -3
c129 -3 151 -11 138 -52 -6 -19 -14 -20 -180 -20 -144 0 -176 -3 -189 -16 -18
-18 -19 -23 -6 -44 7 -12 38 -16 132 -20 108 -4 123 -7 126 -23 7 -38 -15 -47
-118 -47 -77 0 -100 -3 -111 -16 -22 -27 1 -49 59 -52 55 -3 77 -20 67 -51 -6
-19 -16 -21 -142 -23 -117 -3 -137 -5 -147 -20 -8 -13 -8 -23 0 -35 10 -16 34
-18 222 -21 202 -2 211 -3 217 -23 13 -41 -9 -49 -135 -49 -95 0 -120 -3 -131
-16 -9 -11 -10 -20 -2 -32 9 -15 38 -18 208 -22 174 -4 199 -7 209 -22 8 -13
8 -23 0 -35 -10 -16 -33 -19 -175 -23 -147 -5 -164 -7 -167 -23 -9 -45 5 -47
282 -47 143 0 267 -4 274 -9 8 -4 12 -19 10 -32 -3 -22 -8 -24 -73 -27 -93 -3
-112 -8 -120 -33 -15 -45 3 -49 221 -49 188 0 204 -1 213 -19 7 -13 7 -23 -2
-34 -10 -13 -35 -17 -122 -19 l-110 -3 0 -30 0 -30 103 -3 c114 -3 123 -10 73
-59 -38 -38 -91 -53 -187 -53 -128 0 -252 41 -359 119 l-50 36 -123 3 c-132 4
-152 -2 -152 -44 0 -30 15 -33 150 -37 l105 -2 0 -30 0 -30 -139 -5 c-115 -4
-141 -8 -149 -22 -8 -12 -7 -21 2 -32 11 -14 41 -16 193 -16 186 0 218 -6 218
-40 0 -29 -31 -40 -115 -40 -96 0 -95 -12 4 -62 l74 -38 -189 -1 c-268 -1
-289 0 -351 22 -158 54 -277 180 -317 337 -13 48 -16 122 -16 379 0 345 3 370
57 478 56 110 202 220 324 244 24 5 163 9 309 9 208 1 260 -2 240 -11z m351
-273 c30 -8 100 -38 157 -66 l102 -50 0 -132 0 -131 68 -35 c90 -46 162 -121
191 -198 20 -52 22 -75 19 -179 -3 -108 -6 -123 -35 -186 -56 -117 -169 -202
-319 -241 -84 -22 -124 -19 -47 3 146 42 252 125 307 240 30 64 31 71 31 201
0 123 -2 139 -24 180 -38 72 -69 107 -131 148 -75 50 -156 82 -348 137 -254
73 -300 105 -289 202 6 52 27 79 82 104 51 23 161 25 236 3z"/>
</g>
</svg>
